<svg width="34" height="38" viewBox="0 0 34 38" fill="none" xmlns="http://www.w3.org/2000/svg">
<path d="M17.5935 20.3979C17.5248 20.3831 17.4544 20.3804 17.3848 20.3908C16.6879 20.3096 16.1621 19.72 16.1609 19.0186C16.1609 18.6824 15.8884 18.4099 15.5522 18.4099C15.2161 18.4099 14.9435 18.6824 14.9435 19.0186C14.9453 20.1899 15.7288 21.2158 16.8582 21.5258V22.1345C16.8582 22.4707 17.1307 22.7432 17.4669 22.7432C17.803 22.7432 18.0755 22.4707 18.0755 22.1345V21.5627C19.3791 21.2898 20.2651 20.0757 20.1281 18.7511C19.9908 17.4264 18.8747 16.4198 17.5429 16.4195C16.7797 16.4195 16.1609 15.8007 16.1609 15.0374C16.1609 14.2742 16.7797 13.6554 17.5429 13.6554C18.3062 13.6554 18.925 14.2742 18.925 15.0374C18.925 15.3736 19.1975 15.6461 19.5336 15.6461C19.8698 15.6461 20.1423 15.3736 20.1423 15.0374C20.1405 13.8076 19.2789 12.7469 18.0755 12.493V11.939C18.0755 11.6029 17.803 11.3304 17.4669 11.3304C17.1307 11.3304 16.8582 11.6029 16.8582 11.939V12.5302C15.6022 12.8732 14.7938 14.0926 14.9667 15.3831C15.1397 16.6736 16.2409 17.6368 17.5429 17.6365C18.2961 17.6365 18.9104 18.2396 18.9241 18.9924C18.938 19.7452 18.346 20.3706 17.5935 20.3979V20.3979Z" fill="#687CEA"/>
<path fill-rule="evenodd" clip-rule="evenodd" d="M17.5433 25.9013C12.6685 25.9013 8.7168 21.9496 8.7168 17.0748C8.72244 12.2023 12.6709 8.25363 17.5433 8.24828C22.4181 8.24828 26.3698 12.2 26.3698 17.0748C26.3698 21.9496 22.4181 25.9013 17.5433 25.9013ZM25.1528 17.0756C25.1528 12.873 21.7462 9.46642 17.5437 9.46642C13.3432 9.47118 9.93925 12.8751 9.9345 17.0756C9.9345 21.2781 13.3411 24.6847 17.5437 24.6847C21.7462 24.6847 25.1528 21.2781 25.1528 17.0756Z" fill="#687CEA"/>
<path fill-rule="evenodd" clip-rule="evenodd" d="M29.3703 27.4019L24.6022 29.6548C23.9438 28.4303 22.681 27.651 21.2912 27.6118L16.8896 27.4908C16.1926 27.4709 15.5087 27.2944 14.8891 26.9743L14.4412 26.7421C12.1479 25.5468 9.41446 25.5497 7.12357 26.7499L7.15151 25.7352C7.16073 25.399 6.89591 25.1191 6.55977 25.1099L1.73309 24.977C1.39694 24.9678 1.11727 25.2326 1.10806 25.5688L0.816262 36.1607C0.807282 36.4968 1.0721 36.7768 1.40824 36.786L6.23492 36.9189H6.25156C6.58146 36.9189 6.85133 36.6564 6.86025 36.3268L6.87422 35.8201L8.12814 35.1487C8.62032 34.8839 9.19572 34.8209 9.73337 34.9731L17.2213 37.0746C17.2343 37.0785 17.2474 37.0815 17.2608 37.0844C17.802 37.1977 18.3536 37.2544 18.9064 37.2541C20.0774 37.2547 21.2348 37.0024 22.2991 36.5138C22.3252 36.5019 22.3505 36.4879 22.3746 36.4722L33.2313 29.4497C33.5018 29.2747 33.5892 28.9195 33.4308 28.6389C32.6247 27.2088 30.837 26.664 29.3703 27.4019ZM2.04988 35.5859L2.30786 26.2107L5.91746 26.31L5.65948 35.6855L2.04988 35.5859ZM17.53 35.8977C18.9513 36.1881 20.4281 36.0234 21.7504 35.4266L32.0148 28.7867C31.4441 28.2585 30.6054 28.1411 29.9117 28.4921C29.907 28.4945 29.9022 28.4969 29.8975 28.499L25.0069 30.8098C25.0536 31.0701 25.0732 31.3349 25.0657 31.5995C25.0568 31.9288 24.7873 32.1912 24.4576 32.1915H24.4407L17.2049 31.9924C16.869 31.9832 16.6039 31.7032 16.6131 31.367C16.6226 31.0312 16.9023 30.7661 17.2384 30.7753L23.7952 30.9563C23.5443 29.7449 22.4943 28.8645 21.2579 28.8289L16.8559 28.7079C15.9753 28.6823 15.1119 28.4594 14.3291 28.0552L13.8812 27.8231C11.7187 26.6964 9.11452 26.8352 7.08398 28.1857L6.91249 34.4191L7.55327 34.0758C8.32215 33.6624 9.22181 33.564 10.0623 33.8015L17.53 35.8977Z" fill="#687CEA"/>
<path d="M18.1517 6.53694V0.754437C18.1517 0.418293 17.8792 0.145752 17.543 0.145752C17.2069 0.145752 16.9343 0.418293 16.9343 0.754437V6.53694C16.9343 6.87309 17.2069 7.14563 17.543 7.14563C17.8792 7.14563 18.1517 6.87309 18.1517 6.53694Z" fill="#687CEA"/>
<path d="M22.7171 6.53691V3.79783C22.7171 3.46169 22.4446 3.18915 22.1084 3.18915C21.7723 3.18915 21.4998 3.46169 21.4998 3.79783V6.53691C21.4998 6.87306 21.7723 7.1456 22.1084 7.1456C22.4446 7.1456 22.7171 6.87306 22.7171 6.53691Z" fill="#687CEA"/>
<path d="M13.5864 6.53691V3.79783C13.5864 3.46169 13.3139 3.18915 12.9777 3.18915C12.6416 3.18915 12.369 3.46169 12.369 3.79783V6.53691C12.369 6.87306 12.6416 7.1456 12.9777 7.1456C13.3139 7.1456 13.5864 6.87306 13.5864 6.53691Z" fill="#687CEA"/>
</svg>
