<svg width="34" height="30" viewBox="0 0 34 30" fill="none" xmlns="http://www.w3.org/2000/svg">
<path fill-rule="evenodd" clip-rule="evenodd" d="M2.89253 19.1694H23.0717C24.4646 19.1503 25.5896 17.9504 25.5896 16.4648V3.03725C25.5896 1.55165 24.4646 0.351738 23.0717 0.351738H2.89253C1.49963 0.351738 0.392456 1.55165 0.392456 3.03725V16.4839C0.392456 17.9504 1.49963 19.1503 2.89253 19.1694ZM30.6255 29.9114H10.4641C9.07124 29.9114 7.94621 28.7115 7.94621 27.2259V22.5215C7.94621 22.1596 8.23193 21.8549 8.57123 21.8549C8.91052 21.8358 9.19624 22.1406 9.19624 22.5025V27.2259C9.19624 27.9687 9.76769 28.5592 10.4641 28.5782H30.6255C31.3219 28.5592 31.8755 27.9687 31.8755 27.2259V13.7793C31.8755 13.0556 31.3219 12.4461 30.6255 12.4461H28.7504C28.3932 12.4461 28.1075 12.1413 28.1075 11.7795C28.1075 11.3985 28.3754 11.0938 28.7325 11.0938H30.6255C32.0184 11.1128 33.1434 12.3127 33.1434 13.7793V27.2259C33.1434 28.7115 32.0184 29.9114 30.6255 29.9114ZM28.7322 25.8737H12.3568C11.9996 25.8737 11.7317 25.588 11.7317 25.207C11.7317 24.8452 11.9996 24.5404 12.3568 24.5404H28.7322C29.0715 24.5404 29.3573 24.8452 29.3573 25.207C29.3573 25.588 29.0894 25.8737 28.7322 25.8737ZM2.89244 1.68501C2.19599 1.70405 1.6424 2.29449 1.6424 3.03729V16.4649C1.6424 17.2077 2.19599 17.8171 2.89244 17.8171H23.0716C23.7681 17.8171 24.3217 17.2077 24.3217 16.4649V3.03729C24.3217 2.29449 23.7681 1.70405 23.0716 1.68501H2.89244ZM14.0891 12.5984C14.8034 13.3603 15.7678 13.7984 16.7678 13.7793C17.7678 13.7793 18.7321 13.3603 19.4286 12.5984C20.9108 11.0367 20.9108 8.48446 19.4286 6.90363C17.9643 5.32279 15.5713 5.32279 14.0891 6.90363C13.8391 7.17028 13.8391 7.58929 14.0891 7.85594C14.3391 8.12258 14.732 8.12258 14.982 7.85594C15.9642 6.8084 17.5535 6.8084 18.5536 7.85594C19.5357 8.90348 19.5357 10.5986 18.5536 11.6461C17.5535 12.7127 15.9642 12.7127 14.982 11.6461C14.732 11.3985 14.3391 11.3985 14.0891 11.6461V11.6652C13.8391 11.9128 13.8391 12.3508 14.0891 12.5984ZM9.1959 13.7793C7.12441 13.7793 5.42793 11.989 5.42793 9.76059C5.42793 7.53218 7.12441 5.72279 9.1959 5.72279C11.2852 5.72279 12.9817 7.53218 12.9817 9.76059C12.9817 11.989 11.2852 13.7793 9.1959 13.7793ZM6.67798 9.76056C6.67798 8.27496 7.82087 7.07505 9.19591 7.07505C10.5888 7.07505 11.7317 8.27496 11.7317 9.76056C11.7317 11.2462 10.5888 12.4461 9.19591 12.4461C7.82087 12.4461 6.67798 11.2462 6.67798 9.76056Z" fill="#687CEA"/>
</svg>
