<svg width="28" height="36" viewBox="0 0 28 36" fill="none" xmlns="http://www.w3.org/2000/svg">
<g id="credito-icon">
<path id="Caminho_2" fill-rule="evenodd" clip-rule="evenodd" d="M24.9226 21.907C25.514 21.9048 26.0815 22.1411 26.4971 22.5627C26.9155 22.9849 27.149 23.5565 27.1463 24.1515V26.364C27.1496 27.5986 26.1547 28.6027 24.9226 28.6081H23.8028V33.0751C23.8043 34.3076 22.8092 35.3084 21.5791 35.3116H2.62101C1.39243 35.3109 0.39692 34.3126 0.397339 33.0815V30.2893C0.400956 29.9816 0.647509 29.7322 0.954585 29.7256H0.960279C1.10703 29.7253 1.24773 29.7842 1.3505 29.8892C1.45632 29.9954 1.51466 30.14 1.51221 30.2901V33.0758C1.51199 33.6904 2.00763 34.1896 2.62101 34.1926H21.5791C22.1925 34.1896 22.6881 33.6904 22.6879 33.0758V28.6085H15.9953C15.4041 28.6106 14.837 28.3745 14.4215 27.9532C14.0027 27.5312 13.769 26.9595 13.772 26.3644V24.1526C13.7693 22.9185 14.7636 21.9148 15.9953 21.9085H22.6879V17.4412C22.6879 16.8267 22.1924 16.3276 21.5791 16.3245H2.62101C2.00771 16.3276 1.5122 16.8267 1.51221 17.4412V25.822C1.50687 26.1275 1.25948 26.373 0.954585 26.3754C0.651925 26.3803 0.402537 26.1386 0.397339 25.8353V17.4416C0.397545 16.2102 1.39214 15.2113 2.62101 15.2081H3.51343V4.44171C3.51333 4.31238 3.56451 4.18831 3.6557 4.0968C3.74689 4.00528 3.87063 3.95381 3.9997 3.95371H9.61466L10.4004 0.534288C10.4292 0.408128 10.5069 0.298627 10.6163 0.229971C10.7258 0.161315 10.8581 0.139154 10.9839 0.168383L13.0185 0.637745L22.5425 2.83507C22.7571 2.89045 22.9073 3.08395 22.9081 3.30596C22.907 3.32996 22.9042 3.35386 22.8997 3.37747L20.1849 15.2066H21.5791C22.1691 15.2068 22.7349 15.4419 23.1519 15.8601C23.569 16.2783 23.8031 16.8454 23.8028 17.4366V21.907H24.9226ZM21.8375 3.67102L11.2399 1.22684L10.6136 3.95287H13.4852C13.5379 3.84262 13.5812 3.7281 13.6147 3.61055C13.6479 3.49405 13.7663 3.42391 13.8842 3.4508L16.0604 3.95287H16.6644C16.7911 3.95283 16.9128 4.00285 17.0029 4.09208C17.0321 4.12078 17.0576 4.15297 17.0789 4.18793L18.4887 4.51314C18.6065 4.5406 18.6823 4.65548 18.6614 4.77482C18.6369 4.91291 18.6254 5.05298 18.6269 5.19322C18.6401 6.17048 19.2943 7.02221 20.2337 7.28519C20.3313 7.31299 20.3988 7.40218 20.3992 7.50389C20.3991 7.52121 20.3969 7.53845 20.3927 7.55524L18.6356 15.2065H19.1879L21.8375 3.67102ZM17.3258 14.749C17.3664 14.6752 17.4044 14.6007 17.4397 14.5242C17.5476 14.2928 17.6307 14.0506 17.6876 13.8015C17.7504 13.5293 17.7822 13.2507 17.7825 12.9712C17.782 12.2848 17.5882 11.6124 17.2233 11.0314C17.2098 11.0084 17.1947 10.9878 17.1797 10.9672C17.1699 10.9538 17.1601 10.9404 17.1508 10.9264V4.67105L18.1841 4.90953C18.1769 4.98561 18.1727 5.05864 18.1719 5.13357C18.1605 6.10433 18.6789 7.00391 19.5237 7.47924C19.6455 7.54752 19.7724 7.60639 19.9033 7.65534L18.1689 15.2058H17.1508V15.0339C17.2133 14.9429 17.2717 14.8479 17.3258 14.749ZM17.1511 13.5409V12.4018C17.2218 12.7782 17.2218 13.1645 17.1511 13.5409ZM4.48669 4.9281H16.1782V15.2065H15.5655V9.20104C15.5655 9.07318 15.4653 8.96789 15.3378 8.9618C14.1466 8.92529 13.1775 7.98872 13.0982 6.79718C13.0919 6.66955 12.9869 6.56922 12.8594 6.56896H7.81081C7.6832 6.56902 7.57812 6.66946 7.57204 6.79718C7.4939 7.98928 6.52418 8.92653 5.33243 8.9618C5.20497 8.96789 5.10473 9.07318 5.10467 9.20104V15.2069H4.48669V4.9281ZM14.116 15.2066H15.0863V9.41982C13.8281 9.27774 12.8232 8.30428 12.639 7.04904H8.02392C7.84007 8.30437 6.8353 9.27805 5.57705 9.4202V15.2066H6.54539C7.02043 13.5054 8.56775 12.3293 10.3307 12.3293C12.0937 12.3293 13.641 13.5054 14.116 15.2066ZM7.17057 15.2066C7.62732 13.8493 8.89742 12.9354 10.3269 12.9354C11.7564 12.9354 13.0265 13.8493 13.4832 15.2066H7.17057ZM24.9224 27.4933C25.5391 27.4883 26.0353 26.9839 26.0316 26.3659V24.1541C26.0354 23.8588 25.922 23.5741 25.7164 23.3626C25.5107 23.1511 25.2296 23.0302 24.9349 23.0264H15.9951C15.3786 23.0318 14.8827 23.536 14.8863 24.1537V26.3659C14.8753 26.9774 15.3609 27.482 15.9711 27.4933H24.9224Z" fill="#687CEA"/>
<path id="Caminho_3" d="M19.706 31.4903H19.7185C19.8674 31.4882 20.0089 31.4468 20.112 31.3751C20.215 31.3035 20.2712 31.2074 20.268 31.1081C20.2681 30.8999 20.0182 30.73 19.706 30.726H16.2326C15.9226 30.7303 15.6764 30.9013 15.6827 31.1081C15.6827 31.3164 15.9326 31.4863 16.2447 31.4903H19.706Z" fill="#687CEA"/>
<path id="Elipse_1" d="M16.829 26.1405C17.4621 26.1405 17.9754 25.6272 17.9754 24.9941C17.9754 24.3609 17.4621 23.8477 16.829 23.8477C16.1959 23.8477 15.6826 24.3609 15.6826 24.9941C15.6826 25.6272 16.1959 26.1405 16.829 26.1405Z" fill="#687CEA"/>
</g>
</svg>
