<svg width="33" height="33" viewBox="0 0 33 33" fill="none" xmlns="http://www.w3.org/2000/svg">
<g id="investimentos-icon">
<path id="Caminho_149" d="M21.3904 31.1548H0.777144C0.448144 31.1652 0.185669 31.511 0.185669 31.9341C0.185669 32.3571 0.448144 32.7029 0.777144 32.7133H21.3904C21.6106 32.7203 21.8164 32.5733 21.9281 32.3294C22.0398 32.0854 22.0398 31.7827 21.9281 31.5388C21.8164 31.2948 21.6106 31.1478 21.3904 31.1548V31.1548Z" fill="#687CEA"/>
<path id="Caminho_150" fill-rule="evenodd" clip-rule="evenodd" d="M25.1301 28.3284V9.81636C25.1313 8.68578 26.1743 7.76972 27.4608 7.76937H27.4686C28.7565 7.76953 29.8019 8.68459 29.8072 9.81636V28.3284C29.8072 28.8713 29.5618 29.3919 29.1249 29.7757C28.6881 30.1596 28.0957 30.3752 27.4779 30.3751H27.4686C26.1808 30.3753 25.1352 29.4602 25.1301 28.3284ZM27.4696 8.78943C26.8238 8.78943 26.3003 9.24949 26.3003 9.817V28.329C26.3003 28.8966 26.8238 29.3566 27.4696 29.3566C28.1154 29.3566 28.6389 28.8966 28.6389 28.329V9.817C28.6389 9.24949 28.1154 8.78943 27.4696 8.78943Z" fill="#687CEA"/>
<path id="Caminho_151" d="M31.5465 31.1548H25.7005C25.3832 31.1652 25.1301 31.511 25.1301 31.9341C25.1301 32.3571 25.3832 32.7029 25.7005 32.7133H31.5465C31.7588 32.7203 31.9572 32.5733 32.0649 32.3294C32.1726 32.0854 32.1726 31.7827 32.0649 31.5388C31.9572 31.2948 31.7588 31.1478 31.5465 31.1548V31.1548Z" fill="#687CEA"/>
<path id="Caminho_152" fill-rule="evenodd" clip-rule="evenodd" d="M18.7771 12.5984C19.6503 12.2898 20.6559 12.4597 21.3249 13.0287L21.3263 13.029C21.7659 13.4031 22.0126 13.9108 22.0121 14.4401V28.3838C22.0116 29.484 20.9642 30.3755 19.6727 30.375C18.3812 30.3746 17.3346 29.4824 17.3351 28.3823V14.4386C17.3347 13.6333 17.9038 12.907 18.7771 12.5984ZM19.6728 29.3789C20.3186 29.3789 20.8421 28.933 20.8421 28.3829V14.4392C20.8421 13.8892 20.3186 13.4432 19.6728 13.4432C19.027 13.4432 18.5035 13.8892 18.5035 14.4392V28.3829C18.5035 28.933 19.027 29.3789 19.6728 29.3789Z" fill="#687CEA"/>
<path id="Caminho_153" fill-rule="evenodd" clip-rule="evenodd" d="M14.9967 20.5456V28.5591C14.9957 29.2932 14.426 29.9548 13.5528 30.2362C12.6795 30.5176 11.6739 30.3635 11.0038 29.8456C10.5635 29.5056 10.3171 29.0427 10.3197 28.5605V20.547C10.3578 20.0516 10.5981 19.5784 11.0056 19.1961C11.8674 18.4543 13.3994 18.5513 14.3127 19.2604C14.75 19.602 14.9958 20.0639 14.9967 20.5456ZM11.4893 20.5462V28.5597C11.4893 29.0611 12.0128 29.4675 12.6585 29.4675C13.3043 29.4675 13.8278 29.0611 13.8278 28.5597V20.5462C13.8583 20.2067 13.6424 19.8823 13.268 19.7053C12.8936 19.5283 12.4234 19.5283 12.049 19.7053C11.6746 19.8823 11.4587 20.2067 11.4893 20.5462Z" fill="#687CEA"/>
<path id="Caminho_154" fill-rule="evenodd" clip-rule="evenodd" d="M7.98098 18.9503V28.5612V28.5615C7.97977 29.2946 7.41021 29.9553 6.53708 30.2363C5.66396 30.5173 4.65859 30.3636 3.98839 29.8465C3.54795 29.5069 3.30143 29.0445 3.30397 28.5629V18.952C3.33083 18.4744 3.57364 18.0195 3.98982 17.6669C4.42342 17.3195 5.02015 17.1234 5.64355 17.1234C6.26694 17.1234 6.86368 17.3195 7.29728 17.6669C7.73443 18.0081 7.98015 18.4693 7.98098 18.9503ZM4.47276 18.9503V28.5612C4.47276 29.062 4.99625 29.468 5.64201 29.468C6.28777 29.468 6.81126 29.062 6.81126 28.5612V18.9503C6.81126 18.4495 6.28777 18.0435 5.64201 18.0435C4.99625 18.0435 4.47276 18.4495 4.47276 18.9503Z" fill="#687CEA"/>
<path id="Caminho_155" d="M25.9277 6.56573C25.9433 6.49759 25.9485 6.4812 25.9507 6.4648C26.0074 6.03097 26.064 5.5969 26.1205 5.16258C26.3089 3.72627 26.4976 2.29009 26.6868 0.854027C26.6979 0.770224 26.6842 0.744719 26.5887 0.756379C26.0376 0.82925 25.4854 0.896293 24.9336 0.965157L21.7451 1.36304C21.4364 1.40166 21.1282 1.44174 20.7895 1.48473C20.8304 1.52736 20.8482 1.5474 20.8675 1.56599C21.5271 2.21418 22.1855 2.86383 22.8487 3.50839C22.9249 3.58126 22.923 3.6228 22.8461 3.68765C22.7028 3.80716 22.565 3.93396 22.4261 4.05857C20.7769 5.53896 12.9192 13.3607 11.4104 14.7186C11.3805 14.7587 11.3347 14.7843 11.2843 14.7889C11.234 14.7936 11.1841 14.7769 11.1471 14.7431C9.88446 13.9415 8.61514 13.1508 7.35102 12.3521C7.06693 12.1932 6.79399 12.0159 6.53402 11.8213C6.39173 11.6859 6.198 11.6156 6.0002 11.6274C5.8024 11.6391 5.61877 11.732 5.4942 11.8832C4.05827 13.4929 2.62295 15.1028 1.18825 16.7128C1.13496 16.7689 1.08837 16.8307 1.04936 16.8971C0.881841 17.2027 0.974706 17.583 1.26519 17.7809C1.55566 17.9789 1.95128 17.9314 2.18462 17.6707C2.41412 17.4182 2.63805 17.1606 2.86533 16.9055C3.93188 15.7109 4.99794 14.5156 6.0635 13.3195C6.13146 13.2433 6.17491 13.2339 6.26256 13.2896C7.81708 14.2707 9.37297 15.2499 10.9302 16.2271C11.2134 16.4404 11.6149 16.4105 11.862 16.1575C12.7904 15.3268 22.6066 5.74811 23.8269 4.64993C23.8978 4.58616 23.9361 4.57705 24.0126 4.64993C24.5384 5.17424 25.0714 5.69163 25.5998 6.21339C25.7075 6.32015 25.8044 6.43274 25.9277 6.56573Z" fill="#687CEA"/>
</g>
</svg>
