<svg width="37" height="35" viewBox="0 0 37 35" fill="none" xmlns="http://www.w3.org/2000/svg">
<path fill-rule="evenodd" clip-rule="evenodd" d="M11.9032 10.6294C12.9191 8.17704 15.3122 6.57815 17.9666 6.57828C21.5893 6.58272 24.5249 9.51844 24.5291 13.1411C24.5291 15.7955 22.9301 18.1886 20.4777 19.2044C18.0253 20.2201 15.2025 19.6586 13.3256 17.7816C11.4487 15.9046 10.8873 13.0817 11.9032 10.6294ZM12.2236 13.1403C12.2236 16.3124 14.7951 18.8838 17.9671 18.8838C21.1381 18.8812 23.708 16.3113 23.7107 13.1403C23.7107 9.96821 21.1392 7.39674 17.9671 7.39674C14.7951 7.39674 12.2236 9.96821 12.2236 13.1403Z" fill="#5E7DEE"/>
<path d="M20.3673 11.7468C20.0936 11.4763 19.7191 11.3327 19.3347 11.3509C18.961 11.3325 18.5965 11.4706 18.3287 11.7319C18.037 12.0685 17.8254 12.4667 17.7098 12.8968C17.6259 13.2039 17.48 13.4905 17.2809 13.739C17.1257 13.8965 16.9114 13.9815 16.6905 13.9732C16.4575 13.986 16.2291 13.9046 16.0567 13.7474C15.8903 13.5617 15.8066 13.3162 15.825 13.0675C15.8137 12.8056 15.9318 12.5549 16.1409 12.397C16.3827 12.2276 16.6737 12.143 16.9686 12.1563V11.4019C16.538 11.3797 16.1127 11.5049 15.7628 11.7568C15.458 12.0048 15.264 12.3634 15.2233 12.7542H14.3892V13.3614H15.2197C15.2513 13.7414 15.4181 14.0975 15.6898 14.3649C15.967 14.614 16.3304 14.7451 16.7027 14.7302C17.0841 14.747 17.4551 14.6034 17.7259 14.3343C18.0202 13.9979 18.2303 13.5963 18.339 13.1627C18.4213 12.8654 18.5671 12.5894 18.7662 12.3537C18.916 12.1952 19.1253 12.1066 19.3435 12.1095C19.5885 12.0976 19.8253 12.1996 19.9849 12.386C20.151 12.6088 20.2329 12.8831 20.2163 13.1604C20.224 13.4261 20.1366 13.6859 19.9698 13.8929C19.7537 14.1116 19.4503 14.2211 19.1444 14.1907V14.9209L19.1634 14.9283C19.5987 14.9683 20.0303 14.8198 20.3489 14.5205C20.6249 14.2231 20.7918 13.8409 20.8223 13.4363H21.5405V12.8368H20.8216C20.7989 12.4323 20.6386 12.0477 20.3673 11.7468Z" fill="#5E7DEE"/>
<rect x="15.8779" y="21.91" width="0.638566" height="7.46629" rx="0.319283" fill="#5E7DEE"/>
<path d="M20.2499 25.5V21.9468C20.2444 21.7744 20.1031 21.6375 19.9306 21.6375C19.7581 21.6375 19.6168 21.7744 19.6113 21.9468V25.5C19.6115 25.6748 19.7522 25.8169 19.9269 25.8188C20.1027 25.8165 20.2452 25.6757 20.2499 25.5Z" fill="#5E7DEE"/>
<path d="M19.9469 27.5548C19.8622 27.5547 19.7809 27.5883 19.721 27.6481C19.6611 27.708 19.6274 27.7892 19.6274 27.8739V29.1391C19.6276 29.3138 19.7683 29.4559 19.943 29.4579C20.1187 29.4554 20.261 29.3147 20.2657 29.1391V27.8739C20.2657 27.6978 20.123 27.555 19.9469 27.5548V27.5548Z" fill="#5E7DEE"/>
<path fill-rule="evenodd" clip-rule="evenodd" d="M33.8504 0.743729H2.80592C1.57042 0.745329 0.569293 1.7466 0.567871 2.9821V8.81083C0.569294 10.0463 1.57047 11.0475 2.80592 11.0489H6.56342V29.7251C6.56644 32.0909 8.4836 34.0081 10.8495 34.0111H25.6817C28.0475 34.0081 29.9647 32.0909 29.9677 29.7251V11.0489H33.8504C35.0859 11.0476 36.0872 10.0463 36.0885 8.81083V2.9821C36.0872 1.74652 35.086 0.745151 33.8504 0.743729ZM28.9627 29.7251C28.9607 31.5363 27.493 33.0042 25.6817 33.0063H10.8495C9.03828 33.0042 7.57056 31.5363 7.5686 29.7251V6.33336H28.9272V11.0489H28.9627V29.7251ZM33.8506 10.0447C34.5313 10.0438 35.083 9.49223 35.0838 8.81149V2.98276C35.0831 2.30195 34.5314 1.75022 33.8506 1.74951H2.80609C2.12533 1.75022 1.5737 2.302 1.57317 2.98276V8.81149C1.57388 9.49217 2.12541 10.0438 2.80609 10.0447H6.5281V6.30175H4.64467C4.35063 6.30175 4.11226 6.06339 4.11226 5.76935C4.11226 5.47531 4.35063 5.23694 4.64467 5.23694H31.4051C31.6991 5.23694 31.9375 5.47531 31.9375 5.76935C31.9375 6.06339 31.6991 6.30175 31.4051 6.30175H29.9679V10.0447H33.8506Z" fill="#5E7DEE"/>
</svg>
