<svg width="32" height="35" viewBox="0 0 32 35" fill="none" xmlns="http://www.w3.org/2000/svg">
<path fill-rule="evenodd" clip-rule="evenodd" d="M15.9129 34.3015C9.46868 34.3015 4.81655 29.3612 2.1194 19.5903C1.25052 16.3516 0.635064 13.0397 0.309234 9.69125C0.200624 8.61169 0.110115 7.51384 0.0558104 6.43428C0.0377089 6.03174 0.0196075 5.6109 0.00150602 5.19006L0.00150563 5.19005L0.00150538 5.19004C-0.0165963 4.7326 0.128217 4.27516 0.454047 3.94581C0.779877 3.59815 1.23242 3.41518 1.70306 3.41518C1.77547 3.41518 1.86598 3.41518 1.93838 3.43348C1.95007 3.43348 1.97684 3.43729 2.02175 3.44368H2.02175C2.11597 3.4571 2.28999 3.48188 2.57194 3.50667C3.1693 3.56156 3.78475 3.59815 4.41831 3.59815C5.66733 3.59815 6.93444 3.48837 8.16536 3.2688H8.23776C9.64969 3.01263 11.0435 2.62838 12.383 2.15264C13.1614 1.85988 13.9579 1.54882 14.7182 1.21947C15.044 1.09138 15.3336 0.945002 15.6232 0.798621C15.7137 0.762026 15.8043 0.743729 15.9129 0.743729H15.931H15.9672C16.0577 0.743729 16.1663 0.762026 16.2568 0.798621C16.3703 0.86417 16.6144 0.973749 17.0153 1.15364L17.0153 1.15366L17.1619 1.21947C17.9222 1.54882 18.7005 1.85988 19.4789 2.13435C20.8365 2.62838 22.2122 3.01263 23.6242 3.2688L23.7147 3.28709C24.9456 3.48837 26.1946 3.59815 27.4617 3.59815C28.0953 3.59815 28.7107 3.57986 29.3081 3.50667C29.457 3.49592 29.5933 3.47885 29.7209 3.4629C29.8105 3.45169 29.8957 3.44102 29.9779 3.43348C30.0503 3.41518 30.1227 3.41518 30.1951 3.41518C30.6657 3.41518 31.1002 3.59815 31.426 3.92751C31.7337 4.27516 31.8966 4.71431 31.8785 5.17175L31.8242 6.43428C31.7518 7.49554 31.6613 8.5934 31.5527 9.69125C31.2269 13.0397 30.6114 16.3516 29.7244 19.5903C27.0092 29.3612 22.3571 34.3015 15.9129 34.3015ZM1.68593 4.67856C1.57732 4.67856 1.46871 4.71516 1.39631 4.78835C1.3058 4.89814 1.26959 5.02622 1.2877 5.1543C1.2877 5.38164 1.30195 5.76752 1.31781 6.1968L1.3239 6.36194C1.3782 7.36831 1.46871 8.44787 1.57732 9.56402C1.90315 12.8393 2.50051 16.078 3.35129 19.2435C4.5822 23.6898 6.22945 27.0931 8.23874 29.3986C9.21622 30.5331 10.3928 31.4479 11.7143 32.1067C14.3752 33.3509 17.4525 33.3509 20.1134 32.1067C21.4348 31.4479 22.6115 30.5331 23.5889 29.3986C25.6163 27.0931 27.2636 23.6898 28.4945 19.2435C29.3634 16.078 29.9607 12.8393 30.2866 9.56402C30.3952 8.46617 30.4857 7.38661 30.54 6.36194C30.5762 5.68493 30.5943 5.28238 30.5943 5.136C30.6124 5.00792 30.5762 4.87984 30.4857 4.78835C30.4133 4.71516 30.3228 4.67856 30.2142 4.67856H30.1599C30.0693 4.69686 29.834 4.73346 29.4358 4.77005C28.766 4.84324 28.1144 4.86154 27.4627 4.86154C26.1413 4.86154 24.8018 4.75175 23.4984 4.53218L23.4079 4.51389C21.9236 4.23942 20.4755 3.85517 19.0635 3.32454C17.9955 2.95859 16.9456 2.51945 15.9319 2.06201C14.9182 2.53775 13.8684 2.95859 12.8185 3.32454C11.4065 3.85517 9.94029 4.23942 8.45595 4.51389L8.38355 4.53218C7.06213 4.75175 5.74071 4.86154 4.41928 4.86154C3.73142 4.86154 3.07976 4.84324 2.4462 4.77005C2.12037 4.73346 1.86695 4.69686 1.75834 4.67856H1.68593ZM10.4102 27.1655C11.7497 28.8671 13.759 29.8552 15.9131 29.8735C18.0491 29.8552 20.0765 28.8671 21.416 27.1655C22.8641 25.4821 24.0769 22.9753 25.0363 19.7366C25.6699 17.5409 26.1405 15.272 26.4483 13.0031C26.5388 12.2712 26.6293 11.521 26.7017 10.7891C26.7379 10.2768 26.756 10.0023 26.756 9.92913C26.7922 9.50828 26.6655 9.10574 26.3939 8.79468C26.1224 8.50192 25.7423 8.33724 25.3441 8.33724H22.9365C22.5926 8.33724 22.303 8.6117 22.303 8.97765C22.303 9.32531 22.5926 9.59977 22.9546 9.59977H25.3441C25.3803 9.59977 25.4165 9.61807 25.4346 9.65466C25.4889 9.70956 25.507 9.76445 25.4889 9.83764C25.4889 9.94742 25.4708 10.2036 25.4165 10.661C25.3622 11.3746 25.2717 12.1065 25.1812 12.8383L25.1811 12.8384C24.8734 15.0525 24.4209 17.2482 23.8054 19.389C22.9365 22.3532 21.8504 24.6221 20.5652 26.1774C19.4791 27.6595 17.7595 28.5561 15.9131 28.611C14.0667 28.5561 12.3471 27.6595 11.261 26.1774C9.97574 24.6404 8.88964 22.3532 8.02076 19.389C7.4053 17.2482 6.93466 15.0525 6.64503 12.8384C6.63241 12.7339 6.6198 12.6296 6.60723 12.5258C6.52964 11.8849 6.45392 11.2594 6.39161 10.661C6.35541 10.1853 6.33731 9.94742 6.33731 9.85594C6.3192 9.78275 6.33731 9.70956 6.39161 9.65466C6.40971 9.61807 6.44592 9.59977 6.48212 9.59977H17.8319C18.1758 9.59977 18.4654 9.32531 18.4654 8.97765C18.4654 8.6117 18.1758 8.33724 17.8138 8.33724H6.48212C6.08388 8.33724 5.70375 8.50192 5.43222 8.79468C5.1607 9.10574 5.01588 9.52658 5.07019 9.94742C5.07019 10.1454 5.08674 10.335 5.10306 10.5219C5.11087 10.6114 5.11863 10.7002 5.12449 10.7891C5.1969 11.521 5.28741 12.2712 5.37792 13.0031C5.68565 15.2903 6.15629 17.5409 6.78985 19.7366C7.73113 22.9936 8.96205 25.4821 10.4102 27.1655Z" fill="#687CEA"/>
</svg>
